<svg width="24" height="24" viewBox="0 0 24 24" fill="none" xmlns="http://www.w3.org/2000/svg">
  <path fill-rule="evenodd" clip-rule="evenodd" d="M10.75 3C6.46979 3 3 6.46979 3 10.75C3 15.0302 6.46979 18.5 10.75 18.5C12.5748 18.5 14.2523 17.8693 15.5765 16.814L19.5063 20.7439C19.848 21.0856 20.402 21.0856 20.7437 20.7439C21.0854 20.4021 21.0854 19.8481 20.7437 19.5064L16.8139 15.5766C17.8693 14.2525 18.5 12.5749 18.5 10.75C18.5 6.46979 15.0302 3 10.75 3ZM4.75 10.75C4.75 7.43629 7.43629 4.75 10.75 4.75C14.0637 4.75 16.75 7.43629 16.75 10.75C16.75 14.0637 14.0637 16.75 10.75 16.75C7.43629 16.75 4.75 14.0637 4.75 10.75Z" fill="#626364"/>
</svg>
