<svg data-v-2b984c7a="" width="28" height="28" viewBox="0 0 28 28" fill="none" xmlns="http://www.w3.org/2000/svg" alt="Glovo Prime" class="prime-badge__icon"><path fill-rule="evenodd" clip-rule="evenodd" d="M13.9154 23.9622L10.7375 25.4225C10.3304 25.6095 9.84798 25.4529 9.62849 25.0624L7.92327 22.0286L4.49322 21.3558C4.05116 21.2691 3.75087 20.856 3.8048 20.4088L4.2199 16.9662L1.84755 14.4244C1.5391 14.0939 1.5391 13.5811 1.84755 13.2506L4.2199 10.7088L3.8048 7.26626C3.75087 6.81901 4.05116 6.40592 4.49322 6.31922L7.92327 5.64648L9.62849 2.61267C9.84798 2.22217 10.3304 2.0655 10.7375 2.25254L13.9154 3.71284L17.0934 2.25254C17.5005 2.0655 17.9829 2.22217 18.2024 2.61267L19.9076 5.64648L23.3377 6.31922C23.7797 6.40592 24.08 6.81901 24.0261 7.26626L23.611 10.7088L25.9834 13.2506C26.2918 13.5811 26.2918 14.0939 25.9834 14.4244L23.611 16.9662L24.0261 20.4088C24.08 20.856 23.7797 21.2691 23.3377 21.3558L19.9076 22.0286L18.2024 25.0624C17.9829 25.4529 17.5005 25.6095 17.0934 25.4225L13.9154 23.9622Z" fill="#6969D9"></path> <path fill-rule="evenodd" clip-rule="evenodd" d="M13.915 23.9622L10.737 25.4225C10.33 25.6095 9.84756 25.4529 9.62807 25.0624L7.92285 22.0286L8.67709 21.2915C11.7478 18.2717 13.9184 15.8933 15.1891 14.1564C16.5614 12.2804 18.1341 9.44382 19.9072 5.64648L23.3373 6.31922C23.7793 6.40592 24.0796 6.81902 24.0257 7.26627L23.6106 10.7088L25.9829 13.2506C26.2914 13.5811 26.2914 14.0939 25.9829 14.4244L23.6106 16.9662L24.0257 20.4088C24.0796 20.856 23.7793 21.2691 23.3373 21.3558L19.9072 22.0286L18.202 25.0624C17.9825 25.4529 17.5001 25.6095 17.093 25.4225L13.915 23.9622Z" fill="#8D8DFF"></path> <path fill-rule="evenodd" clip-rule="evenodd" d="M9.57324 11.5072C9.57324 12.3946 9.86084 13.2467 10.4035 13.971L10.5206 14.1267L12.8127 17.2315C12.8127 17.2315 13.0924 17.6705 13.7023 17.6705H13.8779H14.1099H14.2495C14.8599 17.6705 15.1387 17.2315 15.1387 17.2315L17.4313 14.1267L17.5474 13.971C18.0905 13.2467 18.3781 12.3946 18.3781 11.5072C18.378 9.17729 16.4032 7.28125 13.9756 7.28125C11.5481 7.28125 9.57324 9.17736 9.57324 11.5072ZM15.6657 12.9189L13.976 15.2074L12.2892 12.9233L12.165 12.7574C11.8874 12.3871 11.7411 11.955 11.7411 11.5072C11.7411 10.3244 12.7436 9.36213 13.9756 9.36213C15.2076 9.36213 16.21 10.3244 16.21 11.5072C16.2101 11.9552 16.0638 12.3867 15.7878 12.7549L15.6657 12.9189Z" fill="#FFC244"></path> <path fill-rule="evenodd" clip-rule="evenodd" d="M12.7373 19.5681C12.7373 18.9369 13.2599 18.4141 13.9651 18.4141C14.6712 18.4141 15.1891 18.9283 15.1891 19.5597C15.1891 20.1946 14.6666 20.7174 13.9567 20.7174C13.2561 20.7174 12.7373 20.2036 12.7373 19.5767V19.5681Z" fill="#FFC244"></path></svg>